<svg width="30" height="31" viewBox="0 0 30 31" fill="none" xmlns="http://www.w3.org/2000/svg">
<path d="M14.8933 30.0522C23.1186 30.0522 29.7865 23.3842 29.7865 15.1589C29.7865 6.93357 23.1186 0.265625 14.8933 0.265625C6.66795 0.265625 0 6.93357 0 15.1589C0 23.3842 6.66795 30.0522 14.8933 30.0522Z" fill="#2B2B2B"/>
<path fill-rule="evenodd" clip-rule="evenodd" d="M9.20201 6.62891C7.98423 6.62891 7.1875 7.42829 7.1875 8.47855C7.1875 9.50652 7.96113 10.329 9.15529 10.329H9.17838C10.4201 10.329 11.1921 9.50652 11.1921 8.47855C11.1685 7.42829 10.4201 6.62891 9.20201 6.62891ZM23.7932 16.3569V22.497H20.2333V16.7684C20.2333 15.33 19.7193 14.3477 18.4303 14.3477C17.4467 14.3477 16.8624 15.009 16.6043 15.6493C16.5106 15.8782 16.4864 16.196 16.4864 16.517V22.4968H12.9263C12.9263 22.4968 12.974 12.7943 12.9263 11.79H16.4867V13.3072C16.4833 13.3128 16.4793 13.3184 16.4754 13.3239C16.4709 13.3301 16.4665 13.3362 16.4631 13.3423H16.4867V13.3072C16.9598 12.5793 17.8035 11.5386 19.6951 11.5386C22.0372 11.5386 23.7932 13.0688 23.7932 16.3569ZM10.9579 22.497H7.39909V11.79H10.9579V22.497Z" fill="#F1F2F2"/>
</svg>
