<svg width="30" height="30" viewBox="0 0 30 30" fill="none" xmlns="http://www.w3.org/2000/svg">
<path d="M14.8933 29.7865C23.1186 29.7865 29.7865 23.1186 29.7865 14.8933C29.7865 6.66795 23.1186 0 14.8933 0C6.66795 0 0 6.66795 0 14.8933C0 23.1186 6.66795 29.7865 14.8933 29.7865Z" fill="#2B2B2B"/>
<path d="M16.0958 19.9422C14.9698 19.8551 14.4967 19.2968 13.6137 18.7608C13.1284 21.3071 12.5353 23.7479 10.7786 25.0231C10.2357 21.1746 11.5745 18.284 12.1963 15.2157C11.1365 13.4317 12.3237 9.84069 14.5591 10.7256C17.3104 11.8135 12.1772 17.3593 15.6232 18.0519C19.2208 18.7751 20.6895 11.8095 18.4583 9.54388C15.2348 6.27281 9.07523 9.46954 9.83266 14.1522C10.0172 15.297 11.2002 15.6445 10.3052 17.2241C8.24213 16.7672 7.62673 15.1401 7.70584 12.9708C7.83354 9.41989 10.8965 6.93361 13.9687 6.58954C17.8541 6.15467 21.5008 8.01626 22.0042 11.671C22.5704 15.7958 20.2501 20.2629 16.0958 19.9422Z" fill="#F1F2F2"/>
</svg>
