<svg width="30" height="30" viewBox="0 0 30 30" fill="none" xmlns="http://www.w3.org/2000/svg">
<path d="M14.965 0C23.2304 0 29.93 6.70058 29.93 14.9651C29.93 23.2305 23.2304 29.93 14.965 29.93C6.69955 29.93 0 23.2304 0 14.9651C0 6.70058 6.69966 0 14.965 0Z" fill="#2B2B2B"/>
<path d="M24.3225 10.0802C23.6688 10.3626 22.9653 10.5525 22.2274 10.6386C22.9813 10.1999 23.5593 9.50681 23.8315 8.67914C23.1263 9.08598 22.3462 9.38064 21.5147 9.53866C20.8497 8.85122 19.9022 8.42188 18.8528 8.42188C16.8401 8.42188 15.207 10.0054 15.207 11.9601C15.207 12.2379 15.2389 12.5082 15.3014 12.7674C12.271 12.6196 9.58294 11.21 7.7853 9.06914C7.47102 9.59198 7.29143 10.199 7.29143 10.8481C7.29143 12.0752 7.93489 13.1601 8.91328 13.7934C8.31472 13.7747 7.75345 13.6166 7.26061 13.3501V13.395C7.26061 15.1103 8.51763 16.5405 10.1862 16.866C9.88037 16.9464 9.55859 16.9904 9.22561 16.9904C8.99085 16.9904 8.76266 16.9689 8.54003 16.9268C9.0039 18.3335 10.3508 19.3567 11.9474 19.3848C10.6988 20.3351 9.12646 20.9 7.4177 20.9C7.12304 20.9 6.83311 20.8832 6.54688 20.8505C8.16215 21.855 10.0777 22.4414 12.1382 22.4414C18.8463 22.4414 22.5146 17.0466 22.5146 12.37L22.5043 11.9116C23.2151 11.414 23.8333 10.7911 24.3225 10.0802Z" fill="white"/>
</svg>
