<svg width="24" height="24" fill="none" xmlns="http://www.w3.org/2000/svg"><g opacity=".4"><path stroke="#A5A5A5" stroke-width="2" d="M1 1h22v22H1z"/><path d="M11.008 9.468h2.184V17h-2.184V9.468zm1.092-1.05c-.401 0-.728-.117-.98-.35a1.135 1.135 0 01-.378-.868c0-.345.126-.635.378-.868.252-.233.579-.35.98-.35s.728.112.98.336c.252.224.378.504.378.84 0 .364-.126.667-.378.91-.252.233-.579.35-.98.35zM0 0v-1h-1v1h1zm24 0h1v-1h-1v1zm0 24v1h1v-1h-1zM0 24h-1v1h1v-1zM0 1h24v-2H0v2zm23-1v24h2V0h-2zm1 23H0v2h24v-2zM1 24V0h-2v24h2z" fill="#A5A5A5"/></g></svg>