<svg width="146" height="36" fill="none" xmlns="http://www.w3.org/2000/svg"><path fill-rule="evenodd" clip-rule="evenodd" d="M31.587 31.13H13.838v-8.936h8.866v-8.866h8.882V31.13zM13.838 17.76h4.433v-4.432h-4.433v4.433zm-8.847 0V4.434h13.28v4.462H9.406v8.866H4.992zm17.714-8.865V0H.559v22.194h8.847v13.369H36.02V8.895H22.706zM53.77 16.995h4.958v-3.93h-4.959v3.93zm0 4.082v5.543h-4.283V8.984h13.525v12.093H53.77zM73.77 13.065h-3.098v3.679h3.098c1.487 0 2.193-.605 2.193-1.814 0-1.235-.756-1.865-2.193-1.865zm-1.762 7.432h-1.335v6.123H66.39V8.984h7.86c3.73 0 6.047 2.217 6.047 5.895 0 2.822-1.36 4.51-3.527 5.216l4.635 6.525h-5.24l-4.157-6.123zM91.597 20.976v5.644h-4.282v-5.594L81.191 8.984h4.812l3.452 7.18 3.451-7.18h4.787l-6.097 11.992zM112.952 13.065h-4.812V26.62h-4.283V13.065H99.07v-4.08h13.882v4.08zM119.146 13.065v2.62h7.155v4.082h-7.155v2.772h7.861v4.08h-12.144V8.985h12.144v4.081h-7.861zM140.218 26.62l-5.896-7.987v7.987h-4.283V8.984h4.283v7.507l5.517-7.507h5.266l-6.349 8.515 6.803 9.12h-5.341z" fill="#2B2B2B"/></svg>