<svg width="320" height="143" fill="none" xmlns="http://www.w3.org/2000/svg"><path fill-rule="evenodd" clip-rule="evenodd" d="M92.312 92.473H63.547V77.991h14.37v-14.37h14.395v28.852zM63.547 70.805h7.185v-7.184h-7.185v7.184zm-14.343.001v-21.6h21.524v7.231h-14.37v14.37h-7.154zm28.711-14.37V42.02H42.02V77.99h14.34v21.667h43.134V56.436H77.915zM128.265 69.56h8.037v-6.369h-8.037v6.37zm-.003 6.618v8.982h-6.942V56.578h21.92v19.6h-14.978zM160.686 63.191h-5.022v5.962h5.022c2.409 0 3.553-.98 3.553-2.94 0-2-1.225-3.022-3.553-3.022zm-2.861 12.047h-2.164v9.922h-6.942V56.578h12.739c6.044 0 9.8 3.592 9.8 9.554 0 4.574-2.205 7.31-5.716 8.454l7.513 10.574h-8.493l-6.737-9.922zM189.571 76.014v9.146h-6.941v-9.065l-9.922-19.517h7.798l5.594 11.636 5.594-11.636h7.758l-9.881 19.436zM224.188 63.193h-7.8V85.16h-6.941V63.193h-7.759v-6.615h22.5v6.614zM234.219 63.193v4.246h11.597v6.615h-11.597v4.492h12.74v6.614h-19.681V56.578h19.681v6.614h-12.74zM268.372 85.16l-9.556-12.943V85.16h-6.941V56.578h6.941v12.167l8.943-12.167h8.534l-10.289 13.8 11.025 14.782h-8.657z" fill="#FFFFFE"/></svg>