<svg width="253" height="107" viewBox="0 0 253 107" fill="none" xmlns="http://www.w3.org/2000/svg">
<path d="M80.6481 53.0436L3.15251 105.305C2.8481 105.51 2.49381 105.629 2.12753 105.647C1.76124 105.666 1.39673 105.585 1.07295 105.412C0.749182 105.24 0.478325 104.982 0.289338 104.667C0.100352 104.352 0.00034193 103.992 0 103.624L0 2.02677C0.000136422 1.65855 0.100359 1.29732 0.28991 0.981845C0.479461 0.666372 0.751185 0.408573 1.07591 0.236117C1.40064 0.0636607 1.76612 -0.0169402 2.13311 0.00296517C2.50011 0.0228706 2.85476 0.142531 3.15901 0.349102L80.6481 53.0436Z" fill="white"/>
<path d="M17.7998 52.6048L95.2954 0.344709C95.5999 0.139669 95.9544 0.0214322 96.3208 0.00264905C96.6872 -0.0161341 97.0519 0.0652428 97.3757 0.238074C97.6995 0.410905 97.9703 0.668687 98.1592 0.983841C98.3481 1.299 98.4479 1.65967 98.4479 2.02726V103.625C98.4475 103.993 98.3471 104.354 98.1574 104.669C97.9677 104.984 97.696 105.242 97.3713 105.414C97.0466 105.587 96.6813 105.667 96.3144 105.647C95.9475 105.627 95.5931 105.507 95.2889 105.301L17.7998 52.6048Z" fill="#CBCBCB"/>
<path d="M49.0309 31.5469L17.7998 52.6081L49.4159 74.1087L80.647 53.0474L49.0309 31.5469Z" fill="white"/>
<path d="M121.555 48.1798V9.36225C121.88 9.26137 122.177 9.09213 122.469 9.09376C127.059 9.11654 131.651 9.11166 136.239 9.21418C143.741 9.3769 149.333 13.6598 149.719 22.52C149.926 27.3594 149.882 32.259 149.365 37.0691C148.678 43.5178 144.704 47.5468 138.284 48.0854C132.789 48.5443 127.234 48.1798 121.555 48.1798ZM128.834 28.8369C128.834 32.643 128.859 36.4491 128.818 40.2552C128.807 41.3015 129.065 41.8043 130.231 41.7522C132.128 41.6692 134.03 41.7636 135.929 41.7181C138.771 41.6481 141.251 39.6856 141.785 36.8608C142.76 31.6829 142.653 26.4465 141.948 21.2589C141.488 17.8564 138.989 15.9721 135.537 15.8663C133.851 15.8158 132.156 15.9363 130.475 15.8289C129.097 15.7394 128.784 16.317 128.805 17.5765C128.875 21.3289 128.834 25.0829 128.834 28.8369Z" fill="white"/>
<path d="M183.957 94.1389V106.994H177.117V67.8738H183.52C183.63 68.5898 183.736 69.283 183.885 70.2593C184.439 69.872 184.813 69.6361 185.158 69.366C189.823 65.7063 199.477 67.1367 200.495 75.4485C201.105 80.4132 201.291 85.3274 200.171 90.2466C198.982 95.4439 193.999 97.2225 189.834 96.7376C188.794 96.6069 187.778 96.3285 186.817 95.9109C185.919 95.5269 185.136 94.8858 183.957 94.1389ZM184.043 82.911C184.104 83.9655 184.106 85.0264 184.236 86.0711C184.582 88.852 186.284 90.4923 188.853 90.598C191.28 90.6989 193.297 89.28 193.564 86.6422C193.862 83.6117 193.854 80.5589 193.542 77.5298C193.284 75.0173 191.616 73.8522 189.212 73.7497C186.776 73.6456 185.152 74.6561 184.545 77.1278C184.082 78.9926 183.991 82.9045 184.043 82.911Z" fill="white"/>
<path d="M148.773 69.1947C146.377 69.1947 144.269 69.2566 142.169 69.1427C141.749 69.1199 141.178 68.5015 140.993 68.0313C139.33 63.8135 135.621 62.7672 131.961 63.9892C129.864 64.6906 128.471 66.2527 128.12 68.4413C127.254 73.8388 127.277 79.2787 128.016 84.6778C128.477 88.0559 130.501 89.8492 133.983 90.1583C136.858 90.4122 139.359 89.431 140.673 86.2204C141.247 84.8178 141.989 84.4679 143.358 84.5541C145.085 84.6615 146.824 84.5802 148.718 84.5802C148.48 87.3141 147.381 89.9015 145.578 91.9678C141.752 96.4248 136.725 97.5931 131.25 96.4736C126.317 95.4647 122.453 92.6268 121.096 87.5548C120.344 84.751 120.301 81.7211 120.215 78.7856C120.121 75.5783 120.248 72.3548 120.451 69.1508C120.962 61.0586 128.533 56.0386 136.53 57.0409C142.827 57.8302 146.733 61.4003 148.473 67.4438C148.622 67.932 148.656 68.4511 148.773 69.1947Z" fill="white"/>
<path d="M155.532 75.5111L151.257 71.2803C152.634 69.4904 154.513 68.4278 156.649 67.9592C160.31 67.1553 163.994 67.222 167.568 68.4685C171.262 69.7573 173.268 72.5366 173.367 76.3475C173.539 82.8564 173.412 89.3654 173.406 95.8645C173.381 96.0574 173.338 96.2475 173.277 96.4324H166.867C166.79 95.7522 166.719 95.1306 166.613 94.2047C166.011 94.5985 165.543 94.8556 165.122 95.1811C161.804 97.7293 154.608 97.1093 152.101 94.0892C149.862 91.3945 149.261 88.3288 150.333 85.0646C151.419 81.7434 154.041 80.1325 157.39 79.8314C160.008 79.5971 162.65 79.6101 165.285 79.5873C166.235 79.5792 166.576 79.2782 166.571 78.3018C166.553 75.0832 165.074 73.4966 161.882 73.4023C158.491 73.3014 157.851 73.5129 155.532 75.5111ZM158.942 84.5618C157.663 84.8287 156.812 85.6764 156.623 87.0449C156.409 88.6087 156.891 89.8568 158.324 90.6411C159.923 91.5149 163.886 91.0674 165.252 89.8665C166.209 89.0253 166.428 84.9003 166.428 84.9003C166.428 84.9003 160.211 84.2965 158.938 84.5618H158.942Z" fill="white"/>
<path d="M215.396 27.5912C214.974 27.2154 214.693 26.9859 214.437 26.7337C213.313 25.6288 212.197 24.5174 211.026 23.3523C212.253 21.6492 214.06 20.4546 216.106 19.9937C219.679 19.1687 223.309 19.1427 226.873 20.2118C230.81 21.3931 233.1 24.1545 233.24 28.164C233.472 34.8113 233.303 41.4715 233.303 48.2554H226.572C226.496 47.5964 226.421 46.9536 226.308 45.9773C223.785 48.5353 220.816 48.8526 217.7 48.6281C213.824 48.3498 210.73 45.8032 209.975 42.2477C209.091 38.0771 210.358 34.5379 213.711 32.8814C215.304 32.0954 217.203 31.7879 218.997 31.5991C221.034 31.3859 223.11 31.5177 225.169 31.5617C226.122 31.5828 226.446 31.2444 226.449 30.2729C226.459 26.7548 224.338 24.877 220.552 25.209C218.627 25.3815 216.759 25.7395 215.396 27.5912ZM226.377 36.3051C223.894 36.3051 221.539 36.196 219.2 36.3441C217.683 36.4401 216.514 37.8688 216.379 39.3203C216.244 40.7718 217.125 42.3063 218.653 42.7115C220.831 43.2859 223.061 43.3786 224.956 41.8328C226.717 40.4008 226.36 38.3879 226.377 36.3051Z" fill="white"/>
<path d="M234.931 75.611L230.83 71.3168C232.228 69.5057 234.137 68.4089 236.308 67.9484C239.967 67.1706 243.646 67.2259 247.223 68.4968C250.497 69.6619 252.724 72.0327 252.855 75.4483C253.123 82.4047 252.935 89.379 252.935 96.4509H246.459C246.359 95.7366 246.266 95.084 246.152 94.2737C245.835 94.4408 245.526 94.6238 245.226 94.822C241.793 97.4045 238.035 97.2954 234.299 95.8472C230.663 94.438 228.92 90.5164 229.621 86.0838C230.136 82.8505 233.232 80.0924 236.867 79.8239C239.49 79.6286 242.128 79.5993 244.76 79.5896C245.795 79.5896 246.115 79.2365 246.125 78.2097C246.151 75.0675 244.717 73.5021 241.577 73.398C238.153 73.2906 237.768 73.4159 234.931 75.611ZM238.423 84.6763C237.505 85.0701 236.49 86.162 236.311 87.096C236.133 88.03 236.654 89.4441 237.364 90.1405C238.988 91.7352 243.388 91.3414 244.997 89.7142C245.909 88.7948 246.752 85.6038 245.952 84.8325C245.355 84.2662 239.623 84.1605 238.428 84.6763H238.423Z" fill="white"/>
<path d="M177.891 36.2554H159.701C159.506 37.3987 159.671 38.5745 160.174 39.6193C160.676 40.6642 161.491 41.5262 162.506 42.0857C165.416 43.7129 169.165 43.0783 172.413 40.2958L176.564 44.2564C171.895 50.0233 161.564 49.7744 157.118 46.1082C154.805 44.2011 153.642 41.6659 153.09 38.7857C152.293 34.6054 152.358 30.4868 154.076 26.5311C156.291 21.4216 160.422 19.1418 166.629 19.521C168.939 19.6692 171.145 20.5387 172.937 22.0073C174.728 23.4759 176.016 25.4699 176.618 27.7092C177.341 30.3485 177.454 33.1701 177.891 36.2554ZM165.049 31.5364C166.417 31.5364 167.789 31.4713 169.152 31.5527C170.652 31.6438 170.816 30.9441 170.498 29.7139C169.701 26.6222 167.605 24.964 164.614 25.1479C161.942 25.3106 159.998 27.3284 159.535 30.3111C159.386 31.2744 159.774 31.5478 160.631 31.538C162.103 31.5266 163.576 31.5397 165.049 31.5429V31.5364Z" fill="white"/>
<path d="M208.237 25.8071C206.974 25.8071 205.762 25.7111 204.58 25.8576C204.169 25.9096 203.512 26.5491 203.506 26.9299C203.433 31.3722 203.443 35.8162 203.475 40.2585C203.486 41.723 204.305 42.4764 205.786 42.4732H208.253V48.1001C200.917 49.4621 196.41 46.4941 196.386 39.5767C196.371 35.6632 196.321 31.7465 196.413 27.8346C196.451 26.3262 196.174 25.4686 194.464 25.7908C194.219 25.8364 193.948 25.7534 193.555 25.7176V20.8148L196.352 20.5935V11.9415C198.538 11.9415 200.574 11.8927 202.609 11.9936C202.91 12.0098 203.404 12.7291 203.422 13.1326C203.506 15.1927 203.498 17.2593 203.447 19.3161C203.422 20.325 203.748 20.7806 204.805 20.7155C205.903 20.652 207.008 20.7009 208.245 20.7009L208.237 25.8071Z" fill="white"/>
<path d="M223.141 68.685H228.151V73.9442H223.141V84.0965C223.141 85.312 223.123 86.5292 223.141 87.7431C223.183 89.8227 223.953 90.581 226.037 90.6151C226.709 90.6265 227.382 90.6151 228.148 90.6151V96.7433C225.861 96.5122 223.636 96.5122 221.523 96.024C218.398 95.3032 216.284 92.2814 216.259 88.9391C216.228 84.6058 216.259 80.2708 216.259 75.9375C216.259 75.3664 216.259 74.7985 216.259 74.0841L213.253 73.8449V68.9632C213.323 68.9095 216.176 68.8412 216.176 68.8412C216.176 68.8412 216.248 68.4816 216.248 65.6209V60.1925C218.382 60.1925 220.419 60.1518 222.451 60.2445C222.694 60.2559 223.1 60.9784 223.1 61.3836C223.172 63.7447 223.141 66.1091 223.141 68.685Z" fill="white"/>
<path d="M193.049 42.4661C193.049 44.2251 193.018 45.7547 193.06 47.2827C193.085 48.1239 192.735 48.4087 191.935 48.3843C190.825 48.3485 189.715 48.412 188.607 48.3615C183.858 48.1402 180.85 45.0989 180.827 40.3295C180.78 30.379 180.827 20.4301 180.793 10.4796C180.793 9.45611 181.089 9.02977 182.13 9.05581C183.916 9.09812 185.703 9.0672 187.652 9.0672C187.696 9.82223 187.761 10.4324 187.761 11.0443C187.767 20.4106 187.767 29.778 187.761 39.1465C187.761 41.9649 188.264 42.4596 191.089 42.4661C191.709 42.4661 192.326 42.4661 193.049 42.4661Z" fill="white"/>
<path d="M203.738 67.8789H210.373V96.4383H203.738V67.8789Z" fill="white"/>
<path d="M203.655 62.543V57.082H210.461V62.543H203.655Z" fill="white"/>
</svg>
