<svg width="17" height="16" viewBox="0 0 17 16" fill="none" xmlns="http://www.w3.org/2000/svg">
<path fill-rule="evenodd" clip-rule="evenodd" d="M2.01451 0C0.796726 0 0 0.792088 0 1.83277C0 2.85136 0.773628 3.66633 1.96779 3.66633H1.99088C3.23257 3.66633 4.0046 2.85136 4.0046 1.83277C3.98097 0.792088 3.23257 0 2.01451 0ZM16.6052 9.63973V15.7239H13.0453V10.0475C13.0453 8.62219 12.5313 7.64885 11.2424 7.64885C10.2587 7.64885 9.67439 8.30415 9.41633 8.93866C9.32262 9.16542 9.29846 9.48031 9.29846 9.79836V15.7236H5.73828C5.73828 15.7236 5.78607 6.10966 5.73828 5.11449H9.29872V6.6179C9.29536 6.62345 9.29136 6.62895 9.2874 6.63438C9.28291 6.64054 9.27848 6.64662 9.27509 6.65263H9.29872V6.6179C9.77182 5.89658 10.6155 4.86536 12.5071 4.86536C14.8493 4.86536 16.6052 6.38167 16.6052 9.63973ZM3.76979 15.7225H0.210938V5.11308H3.76979V15.7225Z" fill="#2B2B2B"/>
</svg>
