<svg width="86" height="85" viewBox="0 0 86 85" fill="none" xmlns="http://www.w3.org/2000/svg">
<path d="M43.4961 85C66.9682 85 85.9961 65.9721 85.9961 42.5C85.9961 19.0279 66.9682 0 43.4961 0C20.024 0 0.996094 19.0279 0.996094 42.5C0.996094 65.9721 20.024 85 43.4961 85Z" fill="#2B2B2B"/>
<path d="M42.9987 23.8359L32.457 41.0859H53.5404L42.9987 23.8359Z" fill="white"/>
<path d="M53.543 62.1641C58.3064 62.1641 62.168 58.3025 62.168 53.5391C62.168 48.7756 58.3064 44.9141 53.543 44.9141C48.7795 44.9141 44.918 48.7756 44.918 53.5391C44.918 58.3025 48.7795 62.1641 53.543 62.1641Z" fill="white"/>
<path d="M25.75 45.875H41.0833V61.2083H25.75V45.875Z" fill="white"/>
</svg>
