<svg width="85" height="85" viewBox="0 0 85 85" fill="none" xmlns="http://www.w3.org/2000/svg">
<path d="M42.5 85C65.9721 85 85 65.9721 85 42.5C85 19.0279 65.9721 0 42.5 0C19.0279 0 0 19.0279 0 42.5C0 65.9721 19.0279 85 42.5 85Z" fill="#2B2B2B"/>
<path d="M36.7 42.475C35.251 42.475 34.075 43.651 34.075 45.1C34.075 46.549 35.251 47.725 36.7 47.725C38.149 47.725 39.325 46.549 39.325 45.1C39.325 43.651 38.149 42.475 36.7 42.475ZM49.3 42.475C47.851 42.475 46.675 43.651 46.675 45.1C46.675 46.549 47.851 47.725 49.3 47.725C50.749 47.725 51.925 46.549 51.925 45.1C51.925 43.651 50.749 42.475 49.3 42.475ZM43 22C31.408 22 22 31.408 22 43C22 54.592 31.408 64 43 64C54.592 64 64 54.592 64 43C64 31.408 54.592 22 43 22ZM43 59.8C33.739 59.8 26.2 52.261 26.2 43C26.2 42.391 26.242 41.782 26.305 41.194C31.261 38.989 35.188 34.936 37.246 29.917C41.047 35.293 47.305 38.8 54.382 38.8C56.02 38.8 57.595 38.611 59.107 38.254C59.548 39.745 59.8 41.341 59.8 43C59.8 52.261 52.261 59.8 43 59.8Z" fill="white"/>
</svg>
